<svg width="75" height="74" viewBox="0 0 75 74" fill="none" xmlns="http://www.w3.org/2000/svg">
<g filter="url(#filter0_d_3_682)">
<path d="M44.2002 59.1175C44.2002 63.4705 45.7144 66.9999 49.9431 66.9999H63.3431C71.0002 66.9999 71.0002 39.4116 63.3431 39.4116H49.9431C45.7144 39.4116 44.2002 42.9409 44.2002 47.294V59.1175Z" fill="#553788"/>
<path d="M7.82844 63.0587H9.74273V43.3528H7.82844C6.76984 43.3528 5.91416 42.4719 5.91416 41.3822C5.91416 40.2925 6.76984 39.4116 7.82844 39.4116H53.7713C61.4284 39.4116 61.4284 66.9999 53.7713 66.9999H7.82844C6.76984 66.9999 5.91416 66.119 5.91416 65.0293C5.91416 63.9395 6.76984 63.0587 7.82844 63.0587Z" fill="#9266CC"/>
<path d="M7.49926 63.0589H51.8571C55.6857 63.0589 55.6857 43.353 51.8571 43.353H7.49926C5.38589 43.353 5.38589 63.0589 7.49926 63.0589Z" fill="#CCD6DD"/>
<path d="M50.8999 47.2942H6.20138C6.4598 44.9788 6.89051 43.353 7.49926 43.353H51.8571C55.0176 43.353 55.567 56.7688 53.5091 61.4588C54.2595 55.6278 53.3904 47.2942 50.8999 47.2942Z" fill="#99AAB5"/>
<path d="M49.9429 13.7941C49.9429 18.1471 53.3713 21.6765 57.6 21.6765H65.2571C72.9143 21.6765 72.9143 0 65.2571 0H57.6C53.3713 0 49.9429 3.52932 49.9429 7.88235V13.7941Z" fill="#226699"/>
<path d="M13.5716 17.7353H15.4859V3.94118H13.5716C12.513 3.94118 11.6573 3.06032 11.6573 1.97059C11.6573 0.880853 12.513 0 13.5716 0H59.5145C67.1716 0 67.1716 21.6765 59.5145 21.6765H13.5716C12.513 21.6765 11.6573 20.7956 11.6573 19.7059C11.6573 18.6161 12.513 17.7353 13.5716 17.7353Z" fill="#55ACEE"/>
<path d="M13.2419 17.7355H57.5998C61.4283 17.7355 61.4283 3.94141 57.5998 3.94141H13.2419C11.1286 3.94141 11.1286 17.7355 13.2419 17.7355Z" fill="#CCD6DD"/>
<path d="M57.5999 7.88258H11.8006C12.0189 5.66567 12.4974 3.94141 13.2421 3.94141H57.5999C59.8837 3.94141 60.7949 8.8462 60.3527 12.8091C60.054 10.133 59.1447 7.88258 57.5999 7.88258Z" fill="#99AAB5"/>
<path d="M34.6285 31.5292C34.6285 35.8822 38.057 39.4116 42.2857 39.4116H61.4285C69.0857 39.4116 69.0857 21.6763 61.4285 21.6763H42.2857C38.057 21.6763 34.6285 25.2056 34.6285 29.5586V31.5292Z" fill="#F4900C"/>
<path d="M5.9143 35.4704H7.82859V25.6174H5.9143C4.8557 25.6174 4.00002 24.7366 4.00002 23.6469C4.00002 22.5571 4.8557 21.6763 5.9143 21.6763H44.2C51.8572 21.6763 51.8572 39.4116 44.2 39.4116H5.9143C4.8557 39.4116 4.00002 38.5307 4.00002 37.441C4.00002 36.3512 4.8557 35.4704 5.9143 35.4704Z" fill="#FFAC33"/>
<path d="M5.58511 35.4706H42.2858C46.1144 35.4706 46.1144 25.6177 42.2858 25.6177H5.58511C3.47174 25.6177 3.47174 35.4706 5.58511 35.4706Z" fill="#CCD6DD"/>
<path d="M42.2857 29.5589H4.03056C4.15499 27.4661 4.66993 25.6177 5.58496 25.6177H42.2857C44.7245 25.6177 45.6031 29.6121 44.9331 32.5147C44.5541 30.8614 43.6754 29.5589 42.2857 29.5589Z" fill="#99AAB5"/>
</g>
<defs>
<filter id="filter0_d_3_682" x="0" y="0" width="75" height="75" filterUnits="userSpaceOnUse" color-interpolation-filters="sRGB">
<feFlood flood-opacity="0" result="BackgroundImageFix"/>
<feColorMatrix in="SourceAlpha" type="matrix" values="0 0 0 0 0 0 0 0 0 0 0 0 0 0 0 0 0 0 127 0" result="hardAlpha"/>
<feOffset dy="4"/>
<feGaussianBlur stdDeviation="2"/>
<feComposite in2="hardAlpha" operator="out"/>
<feColorMatrix type="matrix" values="0 0 0 0 0 0 0 0 0 0 0 0 0 0 0 0 0 0 0.25 0"/>
<feBlend mode="normal" in2="BackgroundImageFix" result="effect1_dropShadow_3_682"/>
<feBlend mode="normal" in="SourceGraphic" in2="effect1_dropShadow_3_682" result="shape"/>
</filter>
</defs>
</svg>
