<svg width="75" height="68" viewBox="0 0 75 68" fill="none" xmlns="http://www.w3.org/2000/svg">
<g filter="url(#filter0_d_3_692)">
<path d="M69.1064 23.1406H5.89364C4.8478 23.1406 4 23.9956 4 25.0502V57.3892C4 58.4439 4.8478 59.2988 5.89364 59.2988H69.1064C70.1522 59.2988 71 58.4439 71 57.3892V25.0502C71 23.9956 70.1522 23.1406 69.1064 23.1406Z" fill="#FFB636"/>
<path d="M61.7192 37.4848H59.4033C58.8805 37.4848 58.4565 37.0573 58.4565 36.53V30.32C58.4565 29.7928 58.8805 29.3652 59.4033 29.3652H61.7192C62.2421 29.3652 62.666 29.7928 62.666 30.32V36.53C62.666 37.0574 62.2421 37.4848 61.7192 37.4848ZM68.7342 36.53V30.32C68.7342 29.7928 68.3103 29.3652 67.7874 29.3652H65.4715C64.9487 29.3652 64.5247 29.7928 64.5247 30.32V36.53C64.5247 37.0573 64.9487 37.4848 65.4715 37.4848H67.7874C68.3104 37.4848 68.7342 37.0574 68.7342 36.53ZM10.8541 36.53V30.32C10.8541 29.7928 10.4301 29.3652 9.90724 29.3652H7.59135C7.0685 29.3652 6.64453 29.7928 6.64453 30.32V36.53C6.64453 37.0573 7.0685 37.4848 7.59135 37.4848H9.90724C10.4301 37.4848 10.8541 37.0574 10.8541 36.53ZM16.9222 36.53V30.32C16.9222 29.7928 16.4983 29.3652 15.9754 29.3652H13.6597C13.1368 29.3652 12.7128 29.7928 12.7128 30.32V36.53C12.7128 37.0573 13.1368 37.4848 13.6597 37.4848H15.9756C16.4984 37.4848 16.9222 37.0574 16.9222 36.53ZM10.8541 43.9164V41.8421C10.8541 41.3148 10.4301 40.8873 9.90724 40.8873H7.59135C7.0685 40.8873 6.64453 41.3148 6.64453 41.8421V43.9164C6.64453 44.4437 7.0685 44.8712 7.59135 44.8712H9.90724C10.4301 44.8712 10.8541 44.4437 10.8541 43.9164ZM16.9222 43.9164V41.8421C16.9222 41.3148 16.4983 40.8873 15.9754 40.8873H13.6597C13.1368 40.8873 12.7128 41.3148 12.7128 41.8421V43.9164C12.7128 44.4437 13.1368 44.8712 13.6597 44.8712H15.9756C16.4984 44.8712 16.9222 44.4437 16.9222 43.9164ZM10.8541 51.0822V49.0078C10.8541 48.4806 10.4301 48.053 9.90724 48.053H7.59135C7.0685 48.053 6.64453 48.4806 6.64453 49.0078V51.0822C6.64453 51.6094 7.0685 52.037 7.59135 52.037H9.90724C10.4301 52.037 10.8541 51.6096 10.8541 51.0822ZM16.9222 51.0822V49.0078C16.9222 48.4806 16.4983 48.053 15.9754 48.053H13.6597C13.1368 48.053 12.7128 48.4806 12.7128 49.0078V51.0822C12.7128 51.6094 13.1368 52.037 13.6597 52.037H15.9756C16.4984 52.037 16.9222 51.6096 16.9222 51.0822ZM62.666 43.9164V41.8421C62.666 41.3148 62.2421 40.8873 61.7192 40.8873H59.4033C58.8805 40.8873 58.4565 41.3148 58.4565 41.8421V43.9164C58.4565 44.4437 58.8805 44.8712 59.4033 44.8712H61.7192C62.2421 44.8712 62.666 44.4437 62.666 43.9164ZM68.7342 43.9164V41.8421C68.7342 41.3148 68.3103 40.8873 67.7874 40.8873H65.4715C64.9487 40.8873 64.5247 41.3148 64.5247 41.8421V43.9164C64.5247 44.4437 64.9487 44.8712 65.4715 44.8712H67.7874C68.3104 44.8712 68.7342 44.4437 68.7342 43.9164ZM62.666 51.0822V49.0078C62.666 48.4806 62.2421 48.053 61.7192 48.053H59.4033C58.8805 48.053 58.4565 48.4806 58.4565 49.0078V51.0822C58.4565 51.6094 58.8805 52.037 59.4033 52.037H61.7192C62.2421 52.037 62.666 51.6096 62.666 51.0822ZM68.7342 51.0822V49.0078C68.7342 48.4806 68.3103 48.053 67.7874 48.053H65.4715C64.9487 48.053 64.5247 48.4806 64.5247 49.0078V51.0822C64.5247 51.6094 64.9487 52.037 65.4715 52.037H67.7874C68.3104 52.037 68.7342 51.6096 68.7342 51.0822Z" fill="#D38E3C"/>
<path d="M54.8051 0.984863H21.0999C20.5556 0.984863 20.1143 1.62618 20.1143 2.41721V57.8662C20.1143 58.6572 20.5556 59.2985 21.0999 59.2985H54.8051C55.3494 59.2985 55.7908 58.6572 55.7908 57.8662V2.41735C55.7908 1.62618 55.3496 0.984863 54.8051 0.984863Z" fill="#FFE1AB"/>
<path d="M26.7602 33.4179H23.8682C23.3454 33.4179 22.9214 32.9904 22.9214 32.4631V25.1418C22.9214 24.6146 23.3454 24.187 23.8682 24.187H26.7602C27.2831 24.187 27.707 24.6146 27.707 25.1418V32.4631C27.707 32.9905 27.2831 33.4179 26.7602 33.4179ZM34.6056 32.4631V25.1418C34.6056 24.6146 34.1817 24.187 33.6588 24.187H30.7668C30.244 24.187 29.82 24.6146 29.82 25.1418V32.4631C29.82 32.9904 30.244 33.4179 30.7668 33.4179H33.6588C34.1818 33.4179 34.6056 32.9905 34.6056 32.4631ZM45.9178 32.4631V25.1418C45.9178 24.6146 45.4938 24.187 44.9709 24.187H42.0791C41.5562 24.187 41.1322 24.6146 41.1322 25.1418V32.4631C41.1322 32.9904 41.5562 33.4179 42.0791 33.4179H44.9709C45.4939 33.4179 45.9178 32.9905 45.9178 32.4631ZM52.8165 32.4631V25.1418C52.8165 24.6146 52.3925 24.187 51.8697 24.187H48.9777C48.4548 24.187 48.0309 24.6146 48.0309 25.1418V32.4631C48.0309 32.9904 48.4548 33.4179 48.9777 33.4179H51.8697C52.3925 33.4179 52.8165 32.9905 52.8165 32.4631ZM27.707 40.2593V38.1849C27.707 37.6577 27.2831 37.2301 26.7602 37.2301H23.8682C23.3454 37.2301 22.9214 37.6577 22.9214 38.1849V40.2593C22.9214 40.7865 23.3454 41.2141 23.8682 41.2141H26.7602C27.2831 41.2141 27.707 40.7865 27.707 40.2593ZM34.6056 40.2593V38.1849C34.6056 37.6577 34.1817 37.2301 33.6588 37.2301H30.7668C30.244 37.2301 29.82 37.6577 29.82 38.1849V40.2593C29.82 40.7865 30.244 41.2141 30.7668 41.2141H33.6588C34.1818 41.2141 34.6056 40.7865 34.6056 40.2593ZM45.9178 40.2593V38.1849C45.9178 37.6577 45.4938 37.2301 44.9709 37.2301H42.0791C41.5562 37.2301 41.1322 37.6577 41.1322 38.1849V40.2593C41.1322 40.7865 41.5562 41.2141 42.0791 41.2141H44.9709C45.4939 41.2141 45.9178 40.7865 45.9178 40.2593ZM52.8165 40.2593V38.1849C52.8165 37.6577 52.3925 37.2301 51.8697 37.2301H48.9777C48.4548 37.2301 48.0309 37.6577 48.0309 38.1849V40.2593C48.0309 40.7865 48.4548 41.2141 48.9777 41.2141H51.8697C52.3925 41.2141 52.8165 40.7865 52.8165 40.2593ZM27.707 47.9451V45.8708C27.707 45.3435 27.2831 44.916 26.7602 44.916H23.8682C23.3454 44.916 22.9214 45.3435 22.9214 45.8708V47.9451C22.9214 48.4724 23.3454 48.8999 23.8682 48.8999H26.7602C27.2831 48.8999 27.707 48.4725 27.707 47.9451ZM52.8165 47.9451V45.8708C52.8165 45.3435 52.3925 44.916 51.8697 44.916H48.9777C48.4548 44.916 48.0309 45.3435 48.0309 45.8708V47.9451C48.0309 48.4724 48.4548 48.8999 48.9777 48.8999H51.8697C52.3925 48.8999 52.8165 48.4725 52.8165 47.9451ZM27.707 54.9117V52.8373C27.707 52.3101 27.2831 51.8825 26.7602 51.8825H23.8682C23.3454 51.8825 22.9214 52.3101 22.9214 52.8373V54.9117C22.9214 55.4389 23.3454 55.8665 23.8682 55.8665H26.7602C27.2831 55.8665 27.707 55.4391 27.707 54.9117ZM52.8165 54.9117V52.8373C52.8165 52.3101 52.3925 51.8825 51.8697 51.8825H48.9777C48.4548 51.8825 48.0309 52.3101 48.0309 52.8373V54.9117C48.0309 55.4389 48.4548 55.8665 48.9777 55.8665H51.8697C52.3925 55.8665 52.8165 55.4391 52.8165 54.9117Z" fill="#E2A042"/>
<path d="M31.0903 45.1768H44.8147V59.2988H31.0903V45.1768Z" fill="#2B3B47"/>
<path d="M37.9524 21.0981C42.1192 21.0981 45.4971 17.6917 45.4971 13.4897C45.4971 9.28774 42.1192 5.88135 37.9524 5.88135C33.7856 5.88135 30.4077 9.28774 30.4077 13.4897C30.4077 17.6917 33.7856 21.0981 37.9524 21.0981Z" fill="#FF473E"/>
<path d="M37.9524 19.3527C41.1636 19.3527 43.7667 16.7276 43.7667 13.4893C43.7667 10.2511 41.1636 7.62598 37.9524 7.62598C34.7413 7.62598 32.1382 10.2511 32.1382 13.4893C32.1382 16.7276 34.7413 19.3527 37.9524 19.3527Z" fill="#F4F3EF"/>
<path d="M45.8821 44.4066V45.9471C45.8821 46.4744 45.4582 46.9019 44.9353 46.9019H38.3711V59.2742H37.5343V46.9019H30.9703C30.4474 46.9019 30.0234 46.4744 30.0234 45.9471V44.4066C30.0234 43.8793 30.4474 43.4518 30.9703 43.4518H44.9353C45.4582 43.4518 45.8821 43.8792 45.8821 44.4066ZM56.6858 2.64814V0.954812C56.6858 0.427544 56.2619 0 55.739 0H20.1665C19.6437 0 19.2197 0.427544 19.2197 0.954812V2.64814C19.2197 3.17541 19.6437 3.60296 20.1665 3.60296H55.739C56.2619 3.60296 56.6858 3.17541 56.6858 2.64814ZM42.5347 14.0501C42.5347 13.6968 42.2508 13.4105 41.9005 13.4105H38.4855V9.70062C38.4855 9.34734 38.2016 9.06103 37.8513 9.06103C37.5009 9.06103 37.217 9.34748 37.217 9.70062V14.0501C37.217 14.4033 37.5011 14.6896 37.8513 14.6896H41.9005C42.2508 14.6896 42.5347 14.4033 42.5347 14.0501Z" fill="#597B91"/>
</g>
<defs>
<filter id="filter0_d_3_692" x="0" y="0" width="75" height="67.2988" filterUnits="userSpaceOnUse" color-interpolation-filters="sRGB">
<feFlood flood-opacity="0" result="BackgroundImageFix"/>
<feColorMatrix in="SourceAlpha" type="matrix" values="0 0 0 0 0 0 0 0 0 0 0 0 0 0 0 0 0 0 127 0" result="hardAlpha"/>
<feOffset dy="4"/>
<feGaussianBlur stdDeviation="2"/>
<feComposite in2="hardAlpha" operator="out"/>
<feColorMatrix type="matrix" values="0 0 0 0 0 0 0 0 0 0 0 0 0 0 0 0 0 0 0.25 0"/>
<feBlend mode="normal" in2="BackgroundImageFix" result="effect1_dropShadow_3_692"/>
<feBlend mode="normal" in="SourceGraphic" in2="effect1_dropShadow_3_692" result="shape"/>
</filter>
</defs>
</svg>
