<svg width="75" height="71" viewBox="0 0 75 71" fill="none" xmlns="http://www.w3.org/2000/svg">
<g filter="url(#filter0_d_3_654)">
<path d="M4 21.7985C4 15.1953 9.28405 9.8422 15.8022 9.8422C19.8762 9.8422 23.468 11.9334 25.5889 15.114C25.8357 6.7244 32.6258 0 40.967 0C49.4642 0 56.3527 6.97837 56.3527 15.5867C56.3527 22.0309 52.4922 27.5615 46.9863 29.935C46.9962 29.9893 47.0039 30.044 47.0126 30.0985H52.1324C53.7072 30.0985 54.9839 31.3918 54.9839 32.9872V40.5962L66.5722 34.885C68.5236 33.9233 71 35.0843 71 36.9608V55.6281C71 57.5046 68.5235 58.6655 66.5722 57.7038L54.9839 51.9926V59.6017C54.9839 61.197 53.7072 62.4904 52.1324 62.4904H12.8725C11.2978 62.4904 10.0211 61.197 10.0211 59.6017V32.9872C10.0211 32.7408 10.0547 32.503 10.112 32.2749C6.46863 30.2396 4 26.3116 4 21.7985Z" fill="#2B3B47"/>
<path d="M58.5238 38.8517L62.917 36.6865V55.9026L58.5238 53.7374V38.8517Z" fill="#597B91"/>
<path d="M29.1647 15.5867C29.1647 22.1899 34.4488 27.543 40.9669 27.543C47.485 27.543 52.769 22.1899 52.769 15.5867C52.769 8.98344 47.485 3.63037 40.9669 3.63037C34.4488 3.63037 29.1647 8.98331 29.1647 15.5867ZM15.8021 12.627C20.802 12.627 24.8553 16.7332 24.8553 21.7985C24.8553 26.8637 20.802 30.97 15.8021 30.97C10.8021 30.97 6.74881 26.8637 6.74881 21.7985C6.74881 16.7332 10.8021 12.627 15.8021 12.627Z" fill="#597B91"/>
<path d="M34.8352 15.5868C34.8352 19.0175 37.5806 21.7986 40.9669 21.7986C44.3533 21.7986 47.0986 19.0174 47.0986 15.5868C47.0986 12.1562 44.3533 9.375 40.9669 9.375C37.5806 9.375 34.8352 12.1561 34.8352 15.5868ZM15.8023 15.5868C19.1888 15.5868 21.934 18.368 21.934 21.7986C21.934 25.2292 19.1886 28.0104 15.8023 28.0104C12.4157 28.0104 9.67055 25.2292 9.67055 21.7986C9.67055 18.368 12.4157 15.5868 15.8023 15.5868Z" fill="#ADB8BC"/>
<path d="M21.0445 58.2618H43.8713C44.7023 58.2618 45.376 57.5794 45.376 56.7375V50.724C45.376 49.8822 44.7023 49.1997 43.8713 49.1997H21.0445C20.2135 49.1997 19.5399 49.8822 19.5399 50.724V56.7375C19.5399 57.5794 20.2135 58.2618 21.0445 58.2618Z" fill="#ADB8BC"/>
<path d="M38.493 56.6573C36.8976 56.6573 35.6042 55.3471 35.6042 53.7308C35.6042 52.1145 36.8976 50.8042 38.493 50.8042C40.0885 50.8042 41.3818 52.1145 41.3818 53.7308C41.3818 55.3471 40.0885 56.6573 38.493 56.6573Z" fill="#FF473E"/>
<path d="M27.7063 55.4092H30.6231C31.4481 55.4092 32.1167 54.7317 32.1167 53.8961V53.5653C32.1167 52.7296 31.4479 52.0522 30.6231 52.0522H27.7063C26.8814 52.0522 26.2127 52.7298 26.2127 53.5653V53.8961C26.2127 54.7317 26.8814 55.4092 27.7063 55.4092Z" fill="#2B3B47"/>
</g>
<defs>
<filter id="filter0_d_3_654" x="0" y="0" width="75" height="70.4902" filterUnits="userSpaceOnUse" color-interpolation-filters="sRGB">
<feFlood flood-opacity="0" result="BackgroundImageFix"/>
<feColorMatrix in="SourceAlpha" type="matrix" values="0 0 0 0 0 0 0 0 0 0 0 0 0 0 0 0 0 0 127 0" result="hardAlpha"/>
<feOffset dy="4"/>
<feGaussianBlur stdDeviation="2"/>
<feComposite in2="hardAlpha" operator="out"/>
<feColorMatrix type="matrix" values="0 0 0 0 0 0 0 0 0 0 0 0 0 0 0 0 0 0 0.6 0"/>
<feBlend mode="normal" in2="BackgroundImageFix" result="effect1_dropShadow_3_654"/>
<feBlend mode="normal" in="SourceGraphic" in2="effect1_dropShadow_3_654" result="shape"/>
</filter>
</defs>
</svg>
