<svg width="75" height="75" viewBox="0 0 75 75" fill="none" xmlns="http://www.w3.org/2000/svg">
<g filter="url(#filter0_d_3_687)">
<path d="M5.77949 25.1901L4.62793 11.811C4.62793 11.811 13.7357 8.04816 16.8764 7.52554C21.9014 6.68935 31.5326 5.43506 37.4998 5.43506C43.467 5.43506 52.9936 6.68935 58.1232 7.52554C61.3686 8.04816 70.3717 11.811 70.3717 11.811L69.2201 25.1901L56.5529 26.1308C56.3436 40.4507 58.542 58.0107 59.2748 63.8641C59.2748 63.8641 49.9576 64.2822 37.4998 64.3867C25.042 64.2822 15.7248 63.8641 15.7248 63.8641C16.4576 58.0107 18.6561 40.4507 18.4467 26.1308L5.77949 25.1901Z" fill="#FF99B6"/>
<path d="M37.5 12.9609H38.7563V64.3868H37.5V12.9609Z" fill="#FF78A5"/>
<path d="M31.5327 5.85352H43.5718V13.1702H31.5327V5.85352Z" fill="#FF78A5"/>
<path d="M26.8218 0H48.178V6.8986H26.8218V0Z" fill="#FF99B6"/>
<path d="M48.1781 0L52.2609 6.4805L44.5141 18.5008L37.5 13.17L48.1781 0Z" fill="#FFD2DF"/>
<path d="M26.8221 0L22.7393 6.4805L30.4861 18.5008L37.5002 13.17L26.8221 0Z" fill="#FFD2DF"/>
<path d="M34.2546 24.0407C35.7578 24.0407 36.9765 22.824 36.9765 21.3231C36.9765 19.8222 35.7578 18.6055 34.2546 18.6055C32.7513 18.6055 31.5327 19.8222 31.5327 21.3231C31.5327 22.824 32.7513 24.0407 34.2546 24.0407Z" fill="#FF78A5"/>
<path d="M34.2549 23.4136C35.7003 23.4136 36.8721 22.3372 36.8721 21.0095C36.8721 19.6818 35.7003 18.6055 34.2549 18.6055C32.8094 18.6055 31.6377 19.6818 31.6377 21.0095C31.6377 22.3372 32.8094 23.4136 34.2549 23.4136Z" fill="#FFF3F7"/>
<path d="M34.2546 32.925C35.7578 32.925 36.9765 31.7083 36.9765 30.2074C36.9765 28.7065 35.7578 27.4897 34.2546 27.4897C32.7513 27.4897 31.5327 28.7065 31.5327 30.2074C31.5327 31.7083 32.7513 32.925 34.2546 32.925Z" fill="#FF78A5"/>
<path d="M34.2549 32.2979C35.7003 32.2979 36.8721 31.2215 36.8721 29.8938C36.8721 28.5661 35.7003 27.4897 34.2549 27.4897C32.8094 27.4897 31.6377 28.5661 31.6377 29.8938C31.6377 31.2215 32.8094 32.2979 34.2549 32.2979Z" fill="#FFF3F7"/>
<path d="M34.2546 41.8098C35.7578 41.8098 36.9765 40.593 36.9765 39.0921C36.9765 37.5912 35.7578 36.3745 34.2546 36.3745C32.7513 36.3745 31.5327 37.5912 31.5327 39.0921C31.5327 40.593 32.7513 41.8098 34.2546 41.8098Z" fill="#FF78A5"/>
<path d="M34.2549 41.1826C35.7003 41.1826 36.8721 40.1063 36.8721 38.7786C36.8721 37.4508 35.7003 36.3745 34.2549 36.3745C32.8094 36.3745 31.6377 37.4508 31.6377 38.7786C31.6377 40.1063 32.8094 41.1826 34.2549 41.1826Z" fill="#FFF3F7"/>
<path d="M34.2546 50.694C35.7578 50.694 36.9765 49.4773 36.9765 47.9764C36.9765 46.4755 35.7578 45.2588 34.2546 45.2588C32.7513 45.2588 31.5327 46.4755 31.5327 47.9764C31.5327 49.4773 32.7513 50.694 34.2546 50.694Z" fill="#FF78A5"/>
<path d="M34.2549 50.0669C35.7003 50.0669 36.8721 48.9906 36.8721 47.6628C36.8721 46.3351 35.7003 45.2588 34.2549 45.2588C32.8094 45.2588 31.6377 46.3351 31.6377 47.6628C31.6377 48.9906 32.8094 50.0669 34.2549 50.0669Z" fill="#FFF3F7"/>
<path d="M34.2546 59.5788C35.7578 59.5788 36.9765 58.3621 36.9765 56.8612C36.9765 55.3603 35.7578 54.1436 34.2546 54.1436C32.7513 54.1436 31.5327 55.3603 31.5327 56.8612C31.5327 58.3621 32.7513 59.5788 34.2546 59.5788Z" fill="#FF78A5"/>
<path d="M34.2549 58.9517C35.7003 58.9517 36.8721 57.8753 36.8721 56.5476C36.8721 55.2199 35.7003 54.1436 34.2549 54.1436C32.8094 54.1436 31.6377 55.2199 31.6377 56.5476C31.6377 57.8753 32.8094 58.9517 34.2549 58.9517Z" fill="#FFF3F7"/>
<path d="M71 11.6024L67.5453 10.4526L66.2891 25.7132L69.9531 25.3996L71 11.6024ZM4 11.6024L7.45469 10.4526L8.71094 25.7132L5.04688 25.3996L4 11.6024ZM37.5 61.774C48.7016 61.565 57.6 60.1016 59.0656 59.1609C59.1703 61.1469 59.1703 62.8193 59.275 64.1781C59.275 64.1781 49.9578 66.7912 37.5 67.0002C25.0422 66.7912 15.725 64.1781 15.725 64.1781C15.8297 62.9238 15.9344 61.1469 15.9344 59.1609C17.4 59.9971 26.2984 61.565 37.5 61.774Z" fill="#FFD2DF"/>
<path d="M37.5 61.7739H38.7563V66.8956H37.5V61.7739Z" fill="#FF99B6"/>
</g>
<defs>
<filter id="filter0_d_3_687" x="0" y="0" width="75" height="75" filterUnits="userSpaceOnUse" color-interpolation-filters="sRGB">
<feFlood flood-opacity="0" result="BackgroundImageFix"/>
<feColorMatrix in="SourceAlpha" type="matrix" values="0 0 0 0 0 0 0 0 0 0 0 0 0 0 0 0 0 0 127 0" result="hardAlpha"/>
<feOffset dy="4"/>
<feGaussianBlur stdDeviation="2"/>
<feComposite in2="hardAlpha" operator="out"/>
<feColorMatrix type="matrix" values="0 0 0 0 0 0 0 0 0 0 0 0 0 0 0 0 0 0 0.25 0"/>
<feBlend mode="normal" in2="BackgroundImageFix" result="effect1_dropShadow_3_687"/>
<feBlend mode="normal" in="SourceGraphic" in2="effect1_dropShadow_3_687" result="shape"/>
</filter>
</defs>
</svg>
