<svg width="34" height="34" viewBox="0 0 34 34" fill="none" xmlns="http://www.w3.org/2000/svg">
<path d="M16.959 0C7.59052 0 0 7.59052 0 16.959C0 26.3275 7.59052 33.918 16.959 33.918C26.3275 33.918 33.918 26.3275 33.918 16.959C33.918 7.59052 26.3275 0 16.959 0ZM16.959 6.56478C20.2824 6.56478 22.9767 9.25907 22.9767 12.5825C22.9767 15.9059 20.2824 18.6002 16.959 18.6002C13.6356 18.6002 10.9413 15.9059 10.9413 12.5825C10.9413 9.25907 13.6356 6.56478 16.959 6.56478ZM16.959 30.0886C12.9449 30.0886 9.34797 28.2696 6.94088 25.4248C8.22649 23.0041 10.743 21.3355 13.6766 21.3355C13.8407 21.3355 14.0049 21.3629 14.1621 21.4107C15.0511 21.698 15.9811 21.8826 16.959 21.8826C17.9369 21.8826 18.8737 21.698 19.7559 21.4107C19.9132 21.3629 20.0773 21.3355 20.2414 21.3355C23.175 21.3355 25.6915 23.0041 26.9771 25.4248C24.57 28.2696 20.9731 30.0886 16.959 30.0886Z" fill="black"/>
</svg>
