<svg width="75" height="75" viewBox="0 0 75 75" fill="none" xmlns="http://www.w3.org/2000/svg">
<g filter="url(#filter0_d_3_677)">
<path d="M21.6145 41.3347C19.2917 37.5801 17.9515 33.1545 17.9515 28.416C17.9515 14.8292 28.9722 3.81494 42.5669 3.81494C56.1618 3.81494 67.1826 14.8292 67.1826 28.416C67.1826 42.003 56.1618 53.0173 42.5669 53.0173C37.8377 53.0173 33.42 51.6842 29.6691 49.3738L18.6573 63.7691C15.6655 67.7158 9.87361 68.0985 6.40324 64.6302C2.88499 61.114 3.29186 55.3494 7.21698 52.3356L21.6145 41.3347ZM14.9715 56.0192C13.5833 54.6318 11.3336 54.6318 9.94541 56.0192C8.55726 57.4065 8.55726 59.6549 9.94541 61.0423C11.3336 62.4296 13.5833 62.4296 14.9715 61.0423C16.3596 59.6549 16.3596 57.4065 14.9715 56.0192Z" fill="#433B6B"/>
<path d="M42.5668 56.8328C26.8637 56.8328 14.1337 44.1103 14.1337 28.4164C14.1337 12.7224 26.8637 0 42.5668 0C58.27 0 71 12.7224 71 28.4164C71 44.1103 58.27 56.8328 42.5668 56.8328ZM42.5668 49.9438C54.4632 49.9438 64.1071 40.3054 64.1071 28.4162C64.1071 16.5268 54.4632 6.88854 42.5668 6.88854C30.6704 6.88854 21.0266 16.5268 21.0266 28.4162C21.0266 40.3054 30.6704 49.9438 42.5668 49.9438Z" fill="#635994"/>
<path d="M47.1144 41.5005C48.0478 40.8307 48.718 39.9457 49.053 38.965C49.436 37.8886 50.13 36.9319 50.9677 36.1664C51.3507 35.8316 51.7097 35.4728 52.0448 35.0661C55.3715 31.2151 55.8502 25.6897 53.4329 21.3841C52.8106 20.2838 52.4038 19.0878 52.1644 17.844V17.8201C51.9011 16.5285 50.8002 15.5239 49.4838 15.3564C49.1727 15.3325 48.8855 15.3325 48.5983 15.3803C47.4255 15.5717 46.2528 15.6435 45.08 15.4282C41.3464 14.7584 37.3495 15.8587 34.4535 18.753C31.3182 21.9104 30.2651 26.3594 31.3661 30.354C31.749 31.7413 31.8447 33.2004 31.749 34.6356C31.7011 35.5684 32.0123 36.5013 32.7303 37.2189C33.6637 38.1517 35.0279 38.4388 36.2007 38.0321C36.7751 37.8408 37.4213 37.8886 37.9718 38.1278H37.9957C38.5462 38.367 38.953 38.8215 39.1924 39.3477C39.5753 40.1849 40.1976 40.9264 41.0353 41.5244C42.9021 42.7682 45.3433 42.7682 47.1144 41.5005Z" fill="white"/>
<path d="M37.0619 25.3309C37.0619 28.673 39.7729 31.3826 43.1172 31.3826C46.4614 31.3826 49.1724 28.673 49.1724 25.3309C49.1724 21.9887 46.4614 19.2793 43.1172 19.2793C39.7729 19.2793 37.0619 21.9887 37.0619 25.3309Z" fill="#F9C23C"/>
</g>
<defs>
<filter id="filter0_d_3_677" x="2.38419e-07" y="0" width="75" height="75" filterUnits="userSpaceOnUse" color-interpolation-filters="sRGB">
<feFlood flood-opacity="0" result="BackgroundImageFix"/>
<feColorMatrix in="SourceAlpha" type="matrix" values="0 0 0 0 0 0 0 0 0 0 0 0 0 0 0 0 0 0 127 0" result="hardAlpha"/>
<feOffset dy="4"/>
<feGaussianBlur stdDeviation="2"/>
<feComposite in2="hardAlpha" operator="out"/>
<feColorMatrix type="matrix" values="0 0 0 0 0 0 0 0 0 0 0 0 0 0 0 0 0 0 0.25 0"/>
<feBlend mode="normal" in2="BackgroundImageFix" result="effect1_dropShadow_3_677"/>
<feBlend mode="normal" in="SourceGraphic" in2="effect1_dropShadow_3_677" result="shape"/>
</filter>
</defs>
</svg>
