<svg width="75" height="75" viewBox="0 0 75 75" fill="none" xmlns="http://www.w3.org/2000/svg">
<g filter="url(#filter0_d_3_659)">
<path d="M14.8999 13.799C15.6773 13.3463 16.6988 13.1357 18.1139 13.1357C29.0982 13.1357 66.4953 27.086 68.0816 27.6803C68.43 27.8102 68.735 28.0366 68.9594 28.3338C71.3999 31.5497 70.9177 43.3822 66.9814 49.2866C61.5591 57.421 53.5566 59.7257 49.7049 60.1016C49.6419 60.1075 49.4923 60.1154 49.4293 60.1154C44.5916 60.1154 13.349 38.9362 11.0029 34.0689C8.30457 28.4735 8.4817 17.5365 14.8999 13.799Z" fill="#EEEEEE"/>
<path d="M21.7135 17.7966C29.5861 23.7011 47.2996 35.51 47.2996 35.51C48.7049 39.7238 51.0844 51.9302 48.7718 60.0212C42.2965 58.555 13.2622 38.7554 11.0028 34.0693C8.96571 29.8476 8.57207 22.5871 11.2586 17.6707C14.699 15.6396 18.3814 15.2971 21.7135 17.7966Z" fill="#CCD6DD"/>
<path d="M9.8692 10.9491C10.316 10.5299 10.934 10.341 11.5343 10.4433L69.351 19.9554C70.3213 20.1148 71.0239 20.967 70.9983 21.9491C70.9472 23.9369 70.961 25.3855 70.9787 27.0131C70.9885 27.9185 70.9983 28.8789 70.9983 30.0146C70.9983 30.5991 70.7385 31.1561 70.2878 31.53C66.2866 34.8503 53.1373 43.6479 50.1476 45.1437C49.8701 45.2815 49.567 45.3504 49.2679 45.3504C48.8427 45.3504 48.4176 45.2126 48.0673 44.9429C43.0367 41.0716 15.6261 25.3993 11.3355 23.5394C10.6761 23.254 10.2235 22.6281 10.1585 21.9117C9.9125 19.2114 9.25711 12.5807 9.25711 12.5807C9.19806 11.9686 9.42242 11.3664 9.8692 10.9491Z" fill="#A0041E"/>
<path d="M9.7372 11.083C13.7129 6.56613 28.6847 0.112578 31.2236 0.00236177C31.383 -0.00551081 31.5366 0.00629808 31.692 0.0377884C51.5823 4.00163 64.5977 15.4011 69.4985 19.6937L70.3172 20.4061C70.7738 20.7998 71.0238 21.3823 70.9982 21.9846C70.9707 22.5868 70.6695 23.1438 70.1795 23.4961C69.5122 23.9744 53.8122 35.2263 49.992 37.3873C49.6889 37.5566 49.3563 37.6412 49.0237 37.6412C48.5513 37.6412 48.0809 37.47 47.7109 37.1413C40.0056 30.2547 14.0553 15.5684 10.5146 14.2242C9.91039 13.9939 9.45969 13.4842 9.3042 12.8583C9.14872 12.2305 9.31011 11.5672 9.7372 11.083Z" fill="#DD2E44"/>
<path d="M54.8456 32.394C55.7864 32.394 56.6169 31.719 56.7823 30.7605L56.8728 30.235C57.6561 25.6925 58.5438 20.5419 60.1577 15.6215C60.4981 14.5902 59.9333 13.4782 58.902 13.1377C57.8707 12.7972 56.7567 13.3621 56.4181 14.3954C54.7137 19.5893 53.8005 24.8895 52.9955 29.5658L52.905 30.0893C52.72 31.16 53.4384 32.1795 54.509 32.3626C54.6212 32.3842 54.7354 32.394 54.8456 32.394ZM42.954 31.902C43.9951 31.902 44.865 31.0833 44.9182 30.0323C45.0697 27.0013 47.2524 14.3402 49.2285 8.96327C49.6024 7.9418 49.0808 6.81209 48.0613 6.43617C47.034 6.06026 45.9082 6.58378 45.5342 7.60328C43.4401 13.3011 41.1708 26.1727 40.9878 29.8335C40.9326 30.9179 41.7691 31.843 42.8555 31.8961C42.887 31.9 42.9205 31.902 42.954 31.902ZM31.883 24.4388C32.8415 24.4388 33.68 23.7401 33.8276 22.7619L34.05 21.213C34.6267 17.1567 35.7013 9.60685 37.3565 4.64122C37.7009 3.60991 37.1439 2.49594 36.1126 2.15152C35.0774 1.80709 33.9673 2.36605 33.6229 3.39539C31.8555 8.69954 30.7474 16.4777 30.153 20.658L29.9326 22.1774C29.7712 23.252 30.5132 24.2538 31.5878 24.4152C31.6862 24.4329 31.7866 24.4388 31.883 24.4388ZM20.7314 17.7136C21.7313 17.7136 22.5854 16.9559 22.6878 15.9403C23.0539 12.2737 23.6187 9.60292 24.6343 6.72155C24.9964 5.69615 24.4572 4.57234 23.4337 4.21217C22.4044 3.85003 21.2845 4.38733 20.9223 5.41274C19.8103 8.56964 19.1648 11.6006 18.7711 15.5487C18.6629 16.6292 19.4541 17.5936 20.5346 17.7018C20.6015 17.7117 20.6665 17.7136 20.7314 17.7136Z" fill="#EA596E"/>
<path d="M9.63675 43.3821C13.0102 40.9514 17.6177 39.4458 22.6975 39.4458C27.7773 39.4458 32.3848 40.9514 35.7582 43.3821H41.395V53.2228C41.395 60.8179 33.0067 66.9998 22.6975 66.9998C12.3882 66.9998 3.99994 60.8179 3.99994 53.2228V43.3821H9.63675Z" fill="#292F33"/>
<path d="M22.6975 57.1595C12.3711 57.1595 3.99994 50.9913 3.99994 43.3825C3.99994 35.7736 12.3711 29.6055 22.6975 29.6055C33.0238 29.6055 41.395 35.7736 41.395 43.3825C41.395 50.9913 33.0238 57.1595 22.6975 57.1595Z" fill="#292F33"/>
<path d="M8.75671 43.3827C8.75671 48.8187 14.9978 53.2234 22.6972 53.2234C30.3967 53.2234 36.6377 48.8187 36.6377 43.3827C36.6377 37.9467 30.3967 33.542 22.6972 33.542C14.9978 33.542 8.75671 37.9467 8.75671 43.3827Z" fill="#E1E8ED"/>
<path d="M22.6974 54.8627C31.2884 54.8627 38.2793 49.7141 38.2793 43.3825C38.2793 37.051 31.2884 31.9023 22.6974 31.9023C14.1063 31.9023 7.11739 37.053 7.11739 43.3825C7.11739 49.7121 14.1063 54.8627 22.6974 54.8627ZM22.6974 35.1813C29.4796 35.1813 34.9984 38.8597 34.9984 43.3825C34.9984 47.9053 29.4796 51.5838 22.6974 51.5838C15.9151 51.5838 10.3963 47.9053 10.3963 43.3825C10.3963 38.8597 15.9151 35.1813 22.6974 35.1813Z" fill="#E1E8ED"/>
<path d="M31.1431 42.4811C31.1431 41.6505 27.5886 41.8217 22.6977 41.8217C17.8068 41.8217 14.4137 40.7471 14.4137 41.5777C14.4137 45.0711 17.8068 48.5685 22.6977 48.5685C27.5886 48.5685 31.1431 45.9745 31.1431 42.4811Z" fill="#77B255"/>
<path d="M22.6975 49.5525C28.1611 49.5525 32.127 46.5787 32.127 42.481C32.127 42.1425 31.9912 41.8197 31.7432 41.5737C30.9992 40.8317 29.3873 40.8002 24.8487 40.8297L22.6975 40.8376C20.5443 40.8376 18.6549 40.6211 17.2732 40.4617C15.3188 40.2393 14.4332 40.1369 13.8368 40.6664L13.5062 40.9596L13.4294 41.5757C13.4294 45.4116 16.9741 49.5525 22.6975 49.5525ZM30.1312 42.9435C29.8222 45.6596 26.7913 47.5824 22.6975 47.5824C18.6706 47.5824 15.8601 44.9392 15.4487 42.2547C15.8817 42.2802 16.4879 42.3511 17.0469 42.4141C18.4758 42.5794 20.4302 42.8038 22.6955 42.8038L24.8585 42.7959C26.9251 42.7841 29.2259 42.7743 30.1312 42.9435Z" fill="#77B255"/>
<path d="M13.8412 41.4139C13.8412 41.4139 17.7776 39.4458 23.682 41.4139C28.321 42.9609 31.5547 46.4524 31.5547 42.9589C31.5547 39.4654 27.5888 36.6353 22.698 36.6353C17.8071 36.6353 13.8412 39.4458 13.8412 41.4139Z" fill="#F4900C"/>
<path d="M30.6767 45.4488C31.0054 45.4488 31.3104 45.372 31.5978 45.1988C32.5386 44.632 32.5386 43.3724 32.5386 42.9591C32.5386 38.9303 28.124 35.6514 22.6978 35.6514C17.246 35.6514 12.857 38.8043 12.857 41.4141C12.857 41.7546 13.0341 42.0715 13.3234 42.2525C13.6108 42.4277 13.9729 42.4474 14.276 42.2958C14.3409 42.2624 17.9899 40.5521 23.3689 42.347C24.8588 42.843 26.1932 43.5476 27.3682 44.1715C28.7105 44.882 29.7792 45.4488 30.6767 45.4488ZM22.6978 37.6195C27.0395 37.6195 30.5704 40.0147 30.5704 42.9591C30.5704 43.209 30.5507 43.3685 30.5291 43.4649C30.0725 43.3763 29.0549 42.839 28.2893 42.4336C27.1064 41.8097 25.6343 41.0283 23.9908 40.4812C20.6528 39.3692 17.8954 39.44 16.0336 39.7609C17.364 38.6922 19.714 37.6195 22.6978 37.6195Z" fill="#F4900C"/>
</g>
<defs>
<filter id="filter0_d_3_659" x="0" y="0" width="75" height="75" filterUnits="userSpaceOnUse" color-interpolation-filters="sRGB">
<feFlood flood-opacity="0" result="BackgroundImageFix"/>
<feColorMatrix in="SourceAlpha" type="matrix" values="0 0 0 0 0 0 0 0 0 0 0 0 0 0 0 0 0 0 127 0" result="hardAlpha"/>
<feOffset dy="4"/>
<feGaussianBlur stdDeviation="2"/>
<feComposite in2="hardAlpha" operator="out"/>
<feColorMatrix type="matrix" values="0 0 0 0 0 0 0 0 0 0 0 0 0 0 0 0 0 0 0.55 0"/>
<feBlend mode="normal" in2="BackgroundImageFix" result="effect1_dropShadow_3_659"/>
<feBlend mode="normal" in="SourceGraphic" in2="effect1_dropShadow_3_659" result="shape"/>
</filter>
</defs>
</svg>
